<?xml version="1.0" encoding="UTF-8"?>
<svg id="uuid-84024b79-8ded-401e-baec-ea3af60251da" data-name="Layer 1" xmlns="http://www.w3.org/2000/svg" width="16" height="16" viewBox="0 0 16 16">
  <g>
    <g>
      <polygon points=".8525390625 15.25 .8525390625 .75 8.9990234375 .75 13.3525390625 5.103515625 13.3525390625 15.25 .8525390625 15.25" fill="#f3f3f3" stroke-width="0"/>
      <path d="M8.895751953125,1l4.207107543945312,4.207099914550781v9.792900085449219H1.102859497070312V1h7.792892456054688M9.102859497070312.5H.602859497070312v15h13V5c-1.854995727539062-1.854988098144531-2.64501953125-2.645011901855469-4.5-4.5h0Z" fill="#818181" stroke-width="0"/>
    </g>
    <g>
      <rect x=".8525390625" y="10.25" width="12.5" height="5" fill="#3f4247" stroke-width="0"/>
      <path d="M13.102859497070312,10.5v4.5H1.102859497070312v-4.5h12M13.602859497070312,10H.602859497070312v5.5h13v-5.5h0Z" fill="#3f4247" stroke-width="0"/>
    </g>
    <g>
      <path d="M2.660225116138463,13.651123046875c.0146484375.07177734375.041748046875.13623046875.081298828125.193359375s.0904541015625.106201171875.1527099609375.147216796875.134033203125.072998046875.21533203125.095458984375c.081298828125.02294921875.1710205078125.0341796875.2691650390625.0341796875.140625,0,.2611083984375-.021240234375.3614501953125-.063720703125s.1776123046875-.1025390625.2318115234375-.18017578125.081298828125-.169189453125.081298828125-.274658203125c0-.1201171875-.03955078125-.217041015625-.11865234375-.291015625s-.2021484375-.13232421875-.369140625-.1748046875l-.520751953125-.13623046875c-.15087890625-.0380859375-.279052734375-.09375-.384521484375-.1669921875s-.18603515625-.162109375-.24169921875-.26708984375c-.0556640625-.1044921875-.08349609375-.2236328125-.08349609375-.35693359375,0-.16845703125.04541015625-.318115234375.13623046875-.44921875s.2149658203125-.233642578125.3724365234375-.3076171875.3372802734375-.111083984375.5394287109375-.111083984375c.19775390625,0,.3720703125.03369140625.52294921875.10107421875s.2713623046875.160400390625.3614501953125.279052734375.1424560546875.254150390625.1571044921875.406494140625h-.406494140625c-.017578125-.08935546875-.054931640625-.166259765625-.112060546875-.230712890625s-.13037109375-.114501953125-.2197265625-.150390625-.192626953125-.053955078125-.309814453125-.053955078125c-.18896484375,0-.34130859375.046142578125-.45703125.138427734375s-.173583984375.21240234375-.173583984375.3603515625c0,.10546875.0362548828125.194091796875.1087646484375.265869140625s.1768798828125.125244140625.3131103515625.160400390625l.511962890625.134033203125c.17578125.046875.321533203125.106201171875.437255859375.177978515625s.2021484375.160400390625.25927734375.265869140625.085693359375.230712890625.085693359375.375732421875c0,.181640625-.0457763671875.34033203125-.1373291015625.4755859375-.091552734375.1357421875-.22119140625.240478515625-.388916015625.314453125-.167724609375.07373046875-.3673095703125.11083984375-.5987548828125.11083984375-.158203125,0-.3017578125-.019775390625-.4306640625-.059326171875s-.240234375-.095947265625-.333984375-.169189453125-.1680908203125-.159912109375-.2230224609375-.26025390625-.0875244140625-.21142578125-.0977783203125-.3330078125h.40869140625Z" fill="#fff" stroke-width="0"/>
      <path d="M5.732002459888463,14.411376953125v-2.64111328125h-.9052734375v-.358154296875h2.212646484375v.358154296875h-.903076171875v2.64111328125h-.404296875Z" fill="#fff" stroke-width="0"/>
      <path d="M9.370674334888463,14.411376953125h-1.812744140625v-2.999267578125h1.812744140625v.35595703125h-1.41064453125v.9404296875h1.33154296875v.34716796875h-1.33154296875v.999755859375h1.41064453125v.35595703125Z" fill="#fff" stroke-width="0"/>
      <path d="M11.704170428638463,11.531982421875c.1435546875.079833984375.2548828125.18994140625.333984375.33056640625s.11865234375.303955078125.11865234375.489990234375c0,.1845703125-.03955078125.34765625-.11865234375.489013671875s-.190673828125.25146484375-.335205078125.33056640625c-.14404296875.0791015625-.313720703125.11865234375-.508544921875.11865234375h-.696533203125v1.12060546875h-.404296875v-2.999267578125h1.10302734375c.19482421875,0,.364013671875.0400390625.507568359375.119873046875ZM11.588691913013463,11.918701171875c-.1015625-.101806640625-.244873046875-.15283203125-.429443359375-.15283203125h-.661376953125v1.17333984375h.661376953125c.12451171875,0,.229736328125-.02294921875.315185546875-.0693359375.0859375-.0458984375.15185546875-.113037109375.19775390625-.200927734375.04638671875-.087890625.0693359375-.193359375.0693359375-.31640625,0-.1875-.05078125-.33203125-.15283203125-.433837890625Z" fill="#fff" stroke-width="0"/>
    </g>
  </g>
  <g>
    <path d="M9.8125,9.75h-3.7099609375v-3h3.7099609375v-2.04931640625l5.8037109375,3.3505859375.03125.19873046875c0,.11083984375-.0595703125.21435546875-.1552734375.27001953125l-5.6796875,3.27880859375v-2.048828125Z" fill="#188fe6" stroke-width="0"/>
    <path d="M10.062637329101562,5.133541107177734l5.303268432617188,3.062339782714844c.041656494140625.024049758911133.041656494140625.084188461303711,0,.108238220214844l-5.303268432617188,3.062341690063477v-1.866460800170898h-3.70977783203125v-2.5h3.70977783203125v-1.866458892822266M9.562637329101562,4.267440795898438v2.232559204101562h-3.70977783203125v3.5h3.70977783203125v2.232559204101562l.750030517578125-.433099746704102,5.303268432617188-3.062339782714844c.173446655273438-.100160598754883.281219482421875-.286809921264648.281219482421875-.487119674682617s-.107772827148438-.386959075927734-.281219482421875-.48712158203125l-5.303268432617188-3.062339782714844-.750030517578125-.433097839355469h0Z" fill="#fff" stroke-width="0"/>
  </g>
  <polygon points="9.102852069263463 .5 9.102852069263463 5 13.602852069263463 5 9.102852069263463 .5" fill="#818181" stroke-width="0"/>
  <polyline points="8.852852069263463 .5 8.852852069263463 5.25 13.602852069263463 5.25" fill="none" stroke="#f3f3f3" stroke-width=".5"/>
</svg>