<?xml version="1.0" encoding="UTF-8"?>
<svg id="uuid-986a0faf-bae9-4060-9ea6-d15af4c39c9c" data-name="Layer 1" xmlns="http://www.w3.org/2000/svg" width="32" height="32" viewBox="0 0 32 32">
  <g>
    <g>
      <polygon points="1.7060546875 30.5 1.7060546875 1.5 17.9990234375 1.5 26.7060546875 10.20703125 26.7060546875 30.5 1.7060546875 30.5" fill="#f3f3f3" stroke-width="0"/>
      <path d="M17.791481018066406,2l8.414222717285156,8.414218902587891v19.585781097412109H2.205703735351562V2h15.585777282714844M18.205703735351562,1H1.205703735351562v30h26V10c-3.709976196289062-3.709980010986328-5.290023803710938-5.290019989013672-9-9h0Z" fill="#818181" stroke-width="0"/>
    </g>
    <g>
      <rect x="1.7060546875" y="20.5" width="25" height="10" fill="#3f4247" stroke-width="0"/>
      <path d="M26.205703735351562,21v9H2.205703735351562v-9h24M27.205703735351562,20H1.205703735351562v11h26v-11h0Z" fill="#3f4247" stroke-width="0"/>
    </g>
    <g>
      <path d="M5.320450232276926,27.30224609375c.029296875.1435546875.08349609375.2724609375.16259765625.38671875s.180908203125.21240234375.305419921875.29443359375.26806640625.14599609375.4306640625.19091796875c.16259765625.0458984375.342041015625.068359375.538330078125.068359375.28125,0,.522216796875-.04248046875.722900390625-.12744140625s.355224609375-.205078125.463623046875-.3603515625.16259765625-.33837890625.16259765625-.54931640625c0-.240234375-.0791015625-.43408203125-.2373046875-.58203125s-.404296875-.2646484375-.73828125-.349609375l-1.04150390625-.2724609375c-.3017578125-.076171875-.55810546875-.1875-.76904296875-.333984375s-.3720703125-.32421875-.4833984375-.5341796875c-.111328125-.208984375-.1669921875-.447265625-.1669921875-.7138671875,0-.3369140625.0908203125-.63623046875.2724609375-.8984375s.429931640625-.46728515625.744873046875-.615234375.674560546875-.22216796875,1.078857421875-.22216796875c.3955078125,0,.744140625.0673828125,1.0458984375.2021484375s.542724609375.32080078125.722900390625.55810546875.284912109375.50830078125.314208984375.81298828125h-.81298828125c-.03515625-.1787109375-.10986328125-.33251953125-.22412109375-.46142578125s-.2607421875-.22900390625-.439453125-.30078125-.38525390625-.10791015625-.61962890625-.10791015625c-.3779296875,0-.6826171875.09228515625-.9140625.27685546875s-.34716796875.4248046875-.34716796875.720703125c0,.2109375.072509765625.38818359375.217529296875.53173828125s.353759765625.25048828125.626220703125.32080078125l1.02392578125.26806640625c.3515625.09375.64306640625.21240234375.87451171875.35595703125s.404296875.32080078125.5185546875.53173828125.17138671875.46142578125.17138671875.75146484375c0,.36328125-.091552734375.6806640625-.274658203125.951171875-.18310546875.271484375-.4423828125.48095703125-.77783203125.62890625-.33544921875.1474609375-.734619140625.2216796875-1.197509765625.2216796875-.31640625,0-.603515625-.03955078125-.861328125-.11865234375s-.48046875-.19189453125-.66796875-.33837890625-.336181640625-.31982421875-.446044921875-.5205078125-.175048828125-.4228515625-.195556640625-.666015625h.8173828125Z" fill="#fff" stroke-width="0"/>
      <path d="M11.464004919776926,28.82275390625v-5.2822265625h-1.810546875v-.71630859375h4.42529296875v.71630859375h-1.80615234375v5.2822265625h-.80859375Z" fill="#fff" stroke-width="0"/>
      <path d="M18.741348669776926,28.82275390625h-3.62548828125v-5.99853515625h3.62548828125v.7119140625h-2.8212890625v1.880859375h2.6630859375v.6943359375h-2.6630859375v1.99951171875h2.8212890625v.7119140625Z" fill="#fff" stroke-width="0"/>
      <path d="M23.408340857276926,23.06396484375c.287109375.15966796875.509765625.3798828125.66796875.6611328125s.2373046875.60791015625.2373046875.97998046875c0,.369140625-.0791015625.6953125-.2373046875.97802734375s-.38134765625.5029296875-.67041015625.6611328125c-.2880859375.158203125-.62744140625.2373046875-1.01708984375.2373046875h-1.39306640625v2.2412109375h-.80859375v-5.99853515625h2.2060546875c.3896484375,0,.72802734375.080078125,1.01513671875.23974609375ZM23.177383826026926,23.83740234375c-.203125-.20361328125-.48974609375-.3056640625-.85888671875-.3056640625h-1.32275390625v2.3466796875h1.32275390625c.2490234375,0,.45947265625-.0458984375.63037109375-.138671875.171875-.091796875.3037109375-.22607421875.3955078125-.40185546875.0927734375-.17578125.138671875-.38671875.138671875-.6328125,0-.375-.1015625-.6640625-.3056640625-.86767578125Z" fill="#fff" stroke-width="0"/>
    </g>
  </g>
  <g>
    <path d="M19.625,19.5h-7.4189453125v-6h7.4189453125v-4.09912109375l11.3564453125,6.5576171875c.1923828125.11083984375.3125.31884765625.3125.54150390625s-.1201171875.4306640625-.3134765625.5419921875l-11.35546875,6.556640625v-4.0986328125Z" fill="#188fe6" stroke-width="0"/>
    <path d="M20.125267028808594,10.26708984375l10.606529235839844,6.124660491943359c.083328247070312.048120498657227.083328247070312.168378829956055,0,.216499328613281l-10.606529235839844,6.124660491943359v-3.73291015625h-7.419563293457031v-5h7.419563293457031v-3.73291015625M19.125267028808594,8.534900665283203v4.465099334716797h-7.419563293457031v7h7.419563293457031v4.465099334716797l1.500053405761719-.866199493408203,10.606536865234375-6.124660491943359c.346923828125-.200340270996094.56243896484375-.573638916015625.56243896484375-.974239349365234s-.21551513671875-.773899078369141-.56243896484375-.974231719970703l-10.606536865234375-6.124668121337891-1.500053405761719-.866199493408203h0Z" fill="#fff" stroke-width="0"/>
  </g>
  <polygon points="18.205704138526926 1 18.205704138526926 10 27.205704138526926 10 18.205704138526926 1" fill="#818181" stroke-width="0"/>
  <polyline points="17.705704138526926 1 17.705704138526926 10.5 27.205704138526926 10.5" fill="none" stroke="#f3f3f3"/>
</svg>