<?xml version="1.0" encoding="UTF-8"?>
<svg id="uuid-488c2741-01f7-4484-b48a-71834b93dd1b" data-name="Layer 1" xmlns="http://www.w3.org/2000/svg" width="64" height="64" viewBox="0 0 64 64">
  <g>
    <g>
      <polygon points="3 61 3 3 35.5859375 3 53 20.4140625 53 61 3 61" fill="#f3f3f3" stroke-width="0"/>
      <path d="M35.171581268310547,4l16.828418731689453,16.828418731689453v39.171581268310547H4V4h31.171581268310547M36,2H2v60h52V20L36,2h0Z" fill="#818181" stroke-width="0"/>
    </g>
    <g>
      <rect x="3" y="41" width="50" height="20" fill="#3f4247" stroke-width="0"/>
      <path d="M52,42v18H4v-18h48M54,40H2v22h52v-22h0Z" fill="#3f4247" stroke-width="0"/>
    </g>
    <g>
      <path d="M10.2294921875,54.6044921875c.05859375.287109375.1669921875.544921875.3251953125.7734375s.36181640625.4248046875.61083984375.5888671875.5361328125.2919921875.861328125.3818359375c.3251953125.091796875.68408203125.13671875,1.07666015625.13671875.5625,0,1.04443359375-.0849609375,1.44580078125-.2548828125s.71044921875-.41015625.92724609375-.720703125.3251953125-.6767578125.3251953125-1.0986328125c0-.48046875-.158203125-.8681640625-.474609375-1.1640625s-.80859375-.529296875-1.4765625-.69921875l-2.0830078125-.544921875c-.603515625-.15234375-1.1162109375-.375-1.5380859375-.66796875s-.744140625-.6484375-.966796875-1.068359375c-.22265625-.41796875-.333984375-.89453125-.333984375-1.427734375,0-.673828125.181640625-1.2724609375.544921875-1.796875s.85986328125-.9345703125,1.48974609375-1.23046875,1.34912109375-.4443359375,2.15771484375-.4443359375c.791015625,0,1.48828125.134765625,2.091796875.404296875s1.08544921875.6416015625,1.44580078125,1.1162109375.56982421875,1.0166015625.62841796875,1.6259765625h-1.6259765625c-.0703125-.357421875-.2197265625-.6650390625-.4482421875-.9228515625s-.521484375-.4580078125-.87890625-.6015625-.7705078125-.2158203125-1.2392578125-.2158203125c-.755859375,0-1.365234375.1845703125-1.828125.5537109375s-.6943359375.849609375-.6943359375,1.44140625c0,.421875.14501953125.7763671875.43505859375,1.0634765625s.70751953125.5009765625,1.25244140625.6416015625l2.0478515625.5361328125c.703125.1875,1.2861328125.4248046875,1.7490234375.7119140625s.80859375.6416015625,1.037109375,1.0634765625.3427734375.9228515625.3427734375,1.5029296875c0,.7265625-.18310546875,1.361328125-.54931640625,1.90234375-.3662109375.54296875-.884765625.9619140625-1.5556640625,1.2578125-.6708984375.294921875-1.46923828125.443359375-2.39501953125.443359375-.6328125,0-1.20703125-.0791015625-1.72265625-.2373046875s-.9609375-.3837890625-1.3359375-.6767578125-.67236328125-.6396484375-.89208984375-1.041015625-.35009765625-.845703125-.39111328125-1.33203125h1.634765625Z" fill="#fff" stroke-width="0"/>
      <path d="M22.5166015625,57.6455078125v-10.564453125h-3.62109375v-1.4326171875h8.8505859375v1.4326171875h-3.6123046875v10.564453125h-1.6171875Z" fill="#fff" stroke-width="0"/>
      <path d="M37.0712890625,57.6455078125h-7.2509765625v-11.9970703125h7.2509765625v1.423828125h-5.642578125v3.76171875h5.326171875v1.388671875h-5.326171875v3.9990234375h5.642578125v1.423828125Z" fill="#fff" stroke-width="0"/>
      <path d="M46.4052734375,46.1279296875c.57421875.3193359375,1.01953125.759765625,1.3359375,1.322265625s.474609375,1.2158203125.474609375,1.9599609375c0,.73828125-.158203125,1.390625-.474609375,1.9560546875s-.7626953125,1.005859375-1.3408203125,1.322265625c-.576171875.31640625-1.2548828125.474609375-2.0341796875.474609375h-2.7861328125v4.482421875h-1.6171875v-11.9970703125h4.412109375c.779296875,0,1.4560546875.16015625,2.0302734375.4794921875ZM45.943359375,47.6748046875c-.40625-.4072265625-.9794921875-.611328125-1.7177734375-.611328125h-2.6455078125v4.693359375h2.6455078125c.498046875,0,.9189453125-.091796875,1.2607421875-.27734375.34375-.18359375.607421875-.4521484375.791015625-.8037109375.185546875-.3515625.27734375-.7734375.27734375-1.265625,0-.75-.203125-1.328125-.611328125-1.7353515625Z" fill="#fff" stroke-width="0"/>
    </g>
  </g>
  <g>
    <path d="M38.8388671875,39h-14.8388671875v-12h14.8388671875v-8.1982421875l22.712890625,13.11572265625c.384765625.2216796875.625.63623046875.625,1.0810546875.0009765625.44580078125-.23828125.86083984375-.6240234375,1.08349609375l-22.7138671875,13.1162109375v-8.1982421875Z" fill="#188fe6" stroke-width="0"/>
    <path d="M39.839111328125,20.5341796875l21.213088989257812,12.249320983886719c.166641235351562.096229553222656.166641235351562.336769104003906,0,.432998657226562l-21.213088989257812,12.249320983886719v-7.4658203125h-14.839111328125v-10h14.839111328125v-7.4658203125M37.839111328125,17.069801330566406v8.930198669433594h-14.839111328125v14h14.839111328125v8.93019962310791l3.000118255615234-1.732399940490723,21.213092803955078-12.249319076538086c.69384765625-.400680541992188,1.124858856201172-1.14729118347168,1.124858856201172-1.948480606079102s-.431011199951172-1.547798156738281-1.124820709228516-1.948459625244141l-21.213130950927734-12.249340057373047-3.000118255615234-1.732398986816406h0Z" fill="#fff" stroke-width="0"/>
  </g>
  <polygon points="36 2 36 20 54 20 36 2" fill="#818181" stroke-width="0"/>
  <polyline points="35 2 35 21 54 21" fill="none" stroke="#f3f3f3" stroke-width="2"/>
</svg>